<?xml version="1.0" standalone="no"?>
<!DOCTYPE svg PUBLIC "-//W3C//DTD SVG 20010904//EN"
 "http://www.w3.org/TR/2001/REC-SVG-20010904/DTD/svg10.dtd">
<svg version="1.0" xmlns="http://www.w3.org/2000/svg"
 width="260.000000pt" height="260.000000pt" viewBox="0 0 260.000000 260.000000"
 preserveAspectRatio="xMidYMid meet">
<metadata>
Created by potrace 1.11, written by Peter Selinger 2001-2013
</metadata>
<g transform="translate(0.000000,260.000000) scale(0.100000,-0.100000)"
fill="#000000" stroke="none">
<path d="M0 1300 l0 -1300 1300 0 1300 0 0 1300 0 1300 -1300 0 -1300 0 0
-1300z m1105 970 c13 -15 16 -28 10 -57 -16 -86 -192 -509 -269 -647 -34 -60
-56 -82 -56 -56 0 20 -16 9 -27 -17 -6 -16 -70 -165 -143 -333 -124 -285 -237
-601 -253 -703 -6 -38 -6 -39 21 -32 29 7 333 127 532 210 175 72 190 77 190
58 0 -11 7 -14 25 -11 27 6 32 -1 13 -20 -15 -15 -3 -16 24 -1 32 17 31 5 -2
-44 -52 -77 -31 -67 -529 -258 l-285 -109 -43 42 c-24 24 -55 59 -69 80 -25
36 -25 39 -15 110 33 216 160 577 357 1013 105 234 361 740 385 762 41 36 107
43 134 13z m689 -21 l49 -30 -6 -62 c-3 -35 -22 -138 -42 -231 -21 -92 -34
-170 -30 -174 4 -4 73 -6 153 -5 108 1 153 -3 172 -13 l25 -13 -24 -7 c-23 -7
-23 -8 -6 -20 17 -13 17 -14 -5 -22 -19 -7 -21 -10 -7 -15 29 -11 18 -27 -18
-27 -18 0 -38 -6 -42 -13 -5 -9 -49 -18 -128 -26 -186 -18 -170 -9 -195 -104
-46 -172 -94 -316 -103 -304 -5 7 -6 3 -2 -10 7 -27 -24 -133 -42 -140 -6 -3
-28 -54 -48 -114 -20 -60 -38 -109 -40 -109 -2 0 -1 16 2 37 8 45 -12 38 -22
-9 -7 -29 -9 -30 -20 -14 -13 17 -14 17 -24 -1 -10 -17 -10 -16 -11 4 0 12 -6
23 -12 26 -10 3 -9 13 5 41 9 20 17 44 17 54 0 9 9 45 20 80 20 65 23 76 39
152 5 25 16 65 25 90 25 76 79 290 75 295 -3 2 -86 13 -184 25 -258 29 -239
20 -243 115 l-3 78 49 -7 c118 -15 331 -36 379 -36 l51 0 16 68 c24 107 64
331 71 405 7 64 8 67 34 67 15 0 49 -14 75 -31z m518 -65 c61 -23 66 -27 59
-47 -29 -74 -52 -129 -75 -179 -14 -31 -26 -59 -26 -61 0 -3 -13 -19 -30 -37
-24 -26 -28 -35 -20 -51 8 -14 7 -19 -1 -19 -7 0 -9 -3 -6 -7 7 -6 -21 -32
-35 -33 -12 0 -9 30 6 58 21 41 50 141 43 148 -3 4 -9 -6 -13 -22 -4 -15 -13
-39 -20 -53 -8 -14 -14 -31 -14 -38 0 -6 -5 -15 -11 -19 -8 -4 -9 1 -4 17 l8
24 -23 -20 c-21 -18 -23 -18 -17 -2 11 30 -9 10 -23 -23 -13 -32 -30 -31 -30
2 0 11 23 77 51 147 28 69 51 136 51 148 0 12 6 24 13 27 7 2 16 18 20 35 4
17 12 31 18 31 6 0 42 -12 79 -26z m-161 -401 c-8 -15 -10 -15 -11 -2 0 17 10
32 18 25 2 -3 -1 -13 -7 -23z m-812 -266 c86 -43 104 -68 90 -127 -15 -65 -66
-145 -118 -182 -56 -40 -140 -49 -211 -23 -74 27 -71 28 -107 -75 -34 -99 -47
-230 -22 -230 6 0 44 20 84 45 71 44 105 50 105 19 0 -8 5 -14 10 -14 21 0
-48 -97 -84 -117 -28 -16 -77 -16 -139 1 -29 8 -64 17 -79 20 -42 9 -73 84
-63 150 5 28 8 66 8 84 0 17 4 32 8 32 5 0 6 6 3 14 -3 7 11 44 30 81 20 36
36 74 36 82 0 9 17 34 38 56 70 76 161 167 168 167 4 0 15 7 25 16 26 24 90
43 124 37 17 -2 59 -19 94 -36z m803 -37 c80 -24 130 -57 142 -93 16 -44 -2
-52 -71 -32 -87 25 -187 24 -247 -3 -49 -22 -49 -22 -30 -44 10 -11 57 -38
104 -60 199 -90 215 -106 212 -219 -1 -38 -6 -79 -11 -93 -13 -32 -54 -46
-281 -100 -165 -39 -186 -42 -192 -27 -18 44 -7 68 55 118 9 7 70 27 136 44
66 18 118 35 116 39 -3 4 11 11 30 14 19 4 37 11 40 15 3 5 -26 21 -64 36 -75
28 -143 69 -179 108 -26 28 -48 147 -38 202 6 30 50 81 91 103 31 18 117 14
187 -8z"/>
<path d="M1201 1410 c-27 -22 -74 -68 -102 -102 -49 -59 -51 -63 -30 -66 36
-6 63 5 104 38 39 33 81 97 91 143 9 37 -3 34 -63 -13z"/>
</g>
</svg>
